<?xml version="1.0" encoding="UTF-8" standalone="no"?>
<!DOCTYPE svg PUBLIC "-//W3C//DTD SVG 1.1//EN" "http://www.w3.org/Graphics/SVG/1.1/DTD/svg11.dtd">
<svg width="100%" height="100%" viewBox="0 0 200 200" version="1.1" xmlns="http://www.w3.org/2000/svg" xmlns:xlink="http://www.w3.org/1999/xlink" xml:space="preserve" xmlns:serif="http://www.serif.com/" style="fill-rule:evenodd;clip-rule:evenodd;stroke-linecap:round;stroke-linejoin:round;stroke-miterlimit:1.5;">
    <g transform="matrix(16.6667,0,0,16.6667,0,0)">
        <path d="M6.005,1.006C6.394,1.006 6.77,1.147 7.061,1.404L7.138,1.477L7.488,1.826C7.583,1.921 7.708,1.981 7.842,1.996L7.91,2L8.41,2C9.253,2 9.96,2.667 10.008,3.509L10.01,3.6L10.01,4.1C10.01,4.235 10.056,4.366 10.139,4.472L10.184,4.521L10.532,4.871C11.129,5.463 11.161,6.43 10.606,7.061L10.533,7.138L10.184,7.488C10.089,7.583 10.029,7.708 10.014,7.842L10.01,7.91L10.01,8.41C10.01,9.253 9.343,9.96 8.501,10.008L8.41,10.01L7.91,10.01C7.775,10.01 7.644,10.056 7.538,10.139L7.488,10.184L7.139,10.532C6.547,11.129 5.58,11.161 4.948,10.606L4.871,10.533L4.522,10.184C4.427,10.089 4.302,10.029 4.167,10.014L4.1,10.01L3.6,10.01C2.757,10.01 2.05,9.343 2.002,8.501L2,8.41L2,7.91C2,7.775 1.954,7.644 1.871,7.539L1.826,7.489L1.478,7.14C0.881,6.547 0.849,5.58 1.404,4.949L1.477,4.872L1.826,4.523C1.921,4.427 1.981,4.302 1.996,4.168L2,4.1L2,3.6L2.003,3.509C2.048,2.701 2.701,2.048 3.509,2.003L3.6,2L4.1,2C4.235,2 4.366,1.954 4.472,1.871L4.521,1.826L4.871,1.478C5.171,1.176 5.579,1.006 6.005,1.006" style="fill:rgb(211,211,211);fill-rule:nonzero;"/>
    </g>
    <g id="rbustillosdev_logo_capybara.afdesign" transform="matrix(0.265202,0,0,0.265202,100.228,99.7885)">
        <g transform="matrix(1,0,0,1,-250,-250)">
            <g id="Head">
                <g transform="matrix(0.440247,-0.106416,0.13685,0.566152,58.1914,124.35)">
                    <path d="M235.086,193.309L230.598,254.757L199.761,257.349L206.029,198.217L235.086,193.309Z" style="fill:none;stroke:rgb(61,61,61);stroke-width:10.68px;"/>
                </g>
                <g transform="matrix(0.440247,-0.106416,0.150132,0.621101,80.7009,101.032)">
                    <path d="M235.086,193.309L230.598,254.757L199.761,257.349L206.029,198.217L235.086,193.309Z" style="fill:none;stroke:rgb(61,61,61);stroke-width:10.06px;"/>
                </g>
                <g transform="matrix(0.440247,-0.106416,0.162414,0.67191,99.7772,79.7724)">
                    <path d="M235.086,193.309L230.598,254.757L199.761,257.349L206.029,198.217L235.086,193.309Z" style="fill:none;stroke:rgb(61,61,61);stroke-width:9.54px;"/>
                </g>
                <g transform="matrix(0.440247,-0.106416,0.173668,0.71847,121.67,58.994)">
                    <path d="M235.086,193.309L230.598,254.757L199.761,257.349L206.029,198.217L235.086,193.309Z" style="fill:none;stroke:rgb(61,61,61);stroke-width:9.09px;"/>
                </g>
                <g transform="matrix(0.440247,-0.106416,0.18452,0.763363,144.879,37.4363)">
                    <path d="M235.086,193.309L230.598,254.757L199.761,257.349L206.029,198.217L235.086,193.309Z" style="fill:none;stroke:rgb(61,61,61);stroke-width:8.69px;"/>
                </g>
                <g transform="matrix(0.440247,-0.106416,0.199608,0.825785,170.433,10.9085)">
                    <path d="M235.086,193.309L230.598,254.757L199.761,257.349L206.029,198.217L235.086,193.309Z" style="fill:none;stroke:rgb(61,61,61);stroke-width:8.19px;"/>
                </g>
                <g transform="matrix(0.440247,-0.106416,0.215256,0.890519,197.041,-16.4005)">
                    <path d="M235.086,193.309L230.598,254.757L199.761,257.349L206.029,198.217L235.086,193.309Z" style="fill:none;stroke:rgb(61,61,61);stroke-width:7.71px;"/>
                </g>
                <g transform="matrix(0.273805,-0.0420514,-0.0774945,-0.504582,340.299,302.773)">
                    <path d="M229.301,177.65L230.598,254.757L201.645,275.35L206.029,198.217L229.301,177.65Z" style="fill:none;stroke:rgb(61,61,61);stroke-width:13.57px;"/>
                </g>
                <path d="M398.19,177.228L359.212,141.641" style="fill:none;stroke:rgb(61,61,61);stroke-width:5.57px;"/>
                <g transform="matrix(0.808468,-0.174877,-0.174877,0.84033,98.7674,123.733)">
                    <path d="M398.19,177.228L359.212,141.641" style="fill:none;stroke:rgb(61,61,61);stroke-width:8.58px;"/>
                </g>
                <g transform="matrix(1.159,0,0,1.1422,-6.05465,-40.3833)">
                    <ellipse cx="107.472" cy="219.734" rx="41.201" ry="37.581" style="fill:none;stroke:rgb(61,61,61);stroke-width:14.44px;"/>
                </g>
                <g transform="matrix(0.665272,0,0,0.692661,41.8352,64.6024)">
                    <ellipse cx="107.472" cy="219.734" rx="41.201" ry="37.581" style="fill:none;stroke:rgb(61,61,61);stroke-width:24.47px;"/>
                </g>
                <path d="M126.597,354.145C126.596,354.143 126.593,354.137 126.592,354.135L126.375,353.833C125.864,352.823 125.321,351.313 124.888,349.368C123.372,342.562 122.563,327.506 122.65,316.644C122.72,307.745 123.66,294.559 124.924,291.53L126.963,288.46L129.659,286.674C137.369,283.504 173.282,267.17 186.632,263.832C193.174,262.197 248,249.377 249.926,248.992C253.447,248.288 279.845,241.249 296.211,236.746C299.244,235.911 323.702,226.387 333.937,222.975C349.687,217.725 357.215,212.112 362.423,210.175C365.845,208.901 368.783,208.662 371.614,209.283C374.304,209.872 377.053,211.275 379.998,214.219C381.578,215.8 386.744,220.69 388.324,222.27C390.265,224.211 393.496,228.08 395.392,229.976C402.774,237.358 407.52,243.431 410.2,246.112C419.109,255.021 421.624,258.746 428.987,270.871C433.725,278.675 439.285,290.284 441.31,310.533C447.118,368.611 435.52,394.264 431.11,403.085C427.661,409.983 420.077,417.284 411.604,423.434C399.503,432.217 385.797,438.734 382.366,439.592C317.269,455.866 308.469,452.629 303.692,452.459C266.23,451.125 237.186,439.74 229.249,436.077C223.496,433.423 182.372,409.709 170.173,399.928C150.815,384.406 132.84,371.64 126.597,354.145ZM139.592,299.824C139.282,303.824 138.687,312.05 138.649,316.771C138.571,326.672 140.503,344.537 140.734,346.636C141.049,347.151 141.305,347.701 141.497,348.277C143.87,355.397 148.937,361.316 155.209,367.132C162.419,373.817 171.202,380.244 180.182,387.445C191.696,396.677 230.523,419.044 235.953,421.55C243.233,424.909 269.899,435.245 304.261,436.469C308.77,436.629 317.036,439.432 378.486,424.069C381.293,423.368 392.304,417.672 402.206,410.485C408.402,405.988 414.277,400.974 416.799,395.929C420.789,387.949 430.644,364.672 425.39,312.125C423.71,295.325 419.242,285.65 415.31,279.175C408.854,268.542 406.699,265.238 398.887,257.425C396.206,254.745 391.46,248.671 384.078,241.29C382.182,239.394 378.952,235.525 377.01,233.584C375.43,232.003 370.264,227.113 368.684,225.533C368.554,225.404 368.384,225.254 368.229,225.124C367.745,225.3 366.989,225.587 366.426,225.857C365.315,226.389 364.09,227.04 362.702,227.775C357.447,230.56 350.16,234.433 338.996,238.154C328.544,241.638 303.553,251.32 300.456,252.172C283.701,256.783 256.668,263.961 253.064,264.681C251.16,265.062 196.978,277.738 190.513,279.355C179.238,282.173 151.28,294.732 139.592,299.824Z" style="fill:rgb(61,61,61);"/>
                <path d="M235.664,261.968C246.164,264.593 257.992,261.099 267.218,264.174C268.565,264.624 277.159,268.46 282.732,275.468C282.734,275.47 285.084,278.213 288.622,282.931C290.764,285.786 292.605,286.848 293.95,288.978C294.329,289.579 291.715,290.058 284.141,290.629C283.051,290.711 272.831,291.057 266.958,290.059C243.641,286.097 244.064,271.913 238.753,266.602C238.649,266.498 235.532,261.902 235.664,261.968Z" style="fill:rgb(61,61,61);"/>
                <path d="M236.905,257.124L236.919,257.128C241.716,258.318 246.818,258.051 251.77,257.905C257.809,257.725 263.662,257.719 268.799,259.431C270.346,259.947 280.245,264.308 286.645,272.355C286.647,272.358 289.031,275.143 292.622,279.931C294.87,282.928 296.767,284.073 298.178,286.309L298.904,288.175L298.977,289.385L298.765,290.583L298.276,291.703L297.399,292.824L296.253,293.685L295.054,294.22C293.787,294.655 290.538,295.161 284.517,295.615C283.35,295.703 272.408,296.057 266.121,294.988C247.306,291.791 241.972,282.719 238.322,275.524C237.238,273.387 236.49,271.41 235.217,270.137C235.102,270.022 231.91,265.472 231.405,264.612L230.778,263.054L230.683,261.49L231.001,260.152L231.657,258.972L232.61,258.006L233.826,257.316L235.718,256.967L236.905,257.124ZM245.696,268.012C246.203,268.954 246.71,269.955 247.24,271C249.922,276.288 253.966,282.78 267.796,285.13C273.254,286.057 282.752,285.719 283.765,285.643C283.969,285.628 284.171,285.612 284.37,285.596C281.026,281.154 278.821,278.582 278.819,278.58C274.072,272.611 266.784,269.3 265.637,268.918C261.548,267.555 256.874,267.757 252.067,267.9C249.957,267.963 247.825,268.024 245.696,268.012ZM234.971,266.944C234.797,266.904 234.624,266.862 234.451,266.819C234.097,266.73 233.754,266.603 233.428,266.44C233.979,266.716 234.495,266.871 234.971,266.944Z" style="fill:rgb(61,61,61);"/>
                <g transform="matrix(1,0,0,1,0.988554,0.70611)">
                    <path d="M391.296,402.587C391.516,401.994 391.775,401.437 392.039,400.882C392.315,400.302 392.614,399.726 392.864,399.085C393.073,398.376 393.27,397.609 393.438,396.913C393.789,395.185 393.972,394.404 394.019,394.254L394.401,393.539L394.901,393.108L395.554,392.855L396.189,392.833L396.73,392.98L397.165,393.236L397.614,393.721L397.846,394.209L397.926,394.572L397.92,395.125C397.888,395.368 397.651,396.555 397.305,397.97C397.274,398.124 397.241,398.284 397.208,398.449C397.076,399.109 396.895,399.707 396.687,400.267C396.583,400.615 396.476,400.955 396.366,401.277C395.993,402.373 395.542,403.277 395.143,403.813C394.476,405.756 394.488,408.175 397.036,413.27C397.113,413.423 397.291,413.488 397.466,413.569C397.744,413.697 398.06,413.786 398.39,413.853C399.698,414.117 401.787,413.841 402.131,413.792C402.903,413.309 403.934,413.403 404.605,414.074C405.386,414.855 405.386,416.122 404.605,416.903L404.101,417.288L403.526,417.552C402.735,417.834 401.074,418.085 399.347,417.99C398.012,417.917 396.648,417.637 395.594,417.106C394.63,416.62 393.893,415.928 393.458,415.059C392.79,413.721 392.264,412.522 391.858,411.438C390.658,413.919 389.171,416.45 387.394,418.227C382.457,423.164 380.247,422.938 374.23,423.439C373.13,423.531 372.162,422.712 372.071,421.612C371.979,420.512 372.798,419.545 373.898,419.453C378.748,419.049 380.586,419.378 384.565,415.398C387.382,412.582 389.271,407.564 390.448,404.562C390.752,403.787 391.041,403.119 391.296,402.587Z" style="fill:rgb(61,61,61);"/>
                </g>
                <path d="M379.692,365.137C378.553,363.998 371.241,363.354 370.089,356.438C369.016,350.001 377.689,351.106 379.24,355.76C379.612,356.877 382.205,360.111 379.692,365.137Z" style="fill:rgb(61,61,61);"/>
                <path d="M378.376,366.644C378.201,366.577 376.594,365.961 375.338,365.402C372.378,364.085 368.947,361.755 368.116,356.766C367.803,354.889 368.138,353.463 368.765,352.419C369.834,350.639 371.856,349.796 374.094,349.958C376.99,350.169 380.139,352.133 381.137,355.127C381.57,356.425 384.401,360.19 381.481,366.031C381.193,366.606 380.647,367.008 380.012,367.111C379.422,367.207 378.823,367.034 378.376,366.644ZM378.582,362.406C379.333,359.239 377.607,357.185 377.342,356.392C376.935,355.171 375.733,354.379 374.539,354.071C373.685,353.85 372.774,353.788 372.28,354.359C371.957,354.733 371.93,355.32 372.061,356.109C372.717,360.043 375.935,361.373 378.058,362.199C378.238,362.269 378.413,362.338 378.582,362.406Z" style="fill:rgb(61,61,61);"/>
                <g transform="matrix(0.735214,0,0,1.26931,108.012,-97.5243)">
                    <path d="M407.92,362.122C408.626,359.296 410.279,351.193 415.546,351.672C416.553,351.763 416.802,359.256 411.168,361.134C410.321,361.416 408.119,362.023 407.92,362.122Z"/>
                    <path d="M409.415,363.437C408.582,363.755 407.504,363.787 406.613,363.504C405.617,363.188 405.065,362.547 405.228,361.896C405.753,359.793 406.857,354.955 409.341,352.409C411.007,350.7 413.339,349.876 415.968,350.115L416.943,350.314L417.766,350.718L418.339,351.308C418.486,351.536 418.633,351.885 418.721,352.332C418.99,353.696 418.807,356.303 417.517,358.533C416.525,360.247 414.858,361.722 412.525,362.499C411.767,362.752 409.415,363.437 409.415,363.437ZM411.624,358.584C412.028,358.135 412.333,357.622 412.586,357.102C412.876,356.507 413.048,355.828 413.148,355.174C412.498,356.215 412.005,357.423 411.624,358.584Z" style="fill:rgb(61,61,61);"/>
                </g>
                <path d="M76.265,255.526C69.712,275.199 65.242,291.841 36.068,321.305C36.828,321.808 37.658,322.358 38.39,322.846C68.732,343.073 69.446,341.594 99.989,351.776C109.623,354.987 116.481,358.079 120.998,360.419C123.195,349.383 125.01,346.784 122.759,331.387C122.02,326.333 122.722,322.22 123.843,318.025C125.08,313.394 127,308.635 126.522,301.151C126.149,295.303 129.439,290.088 135.026,286.081C144.286,279.439 160.28,276.072 161.087,275.803C163.386,275.037 182.555,268.582 221.644,258.981C235.746,255.517 301.704,235.486 307.664,232.505C308.469,232.103 357.734,215.47 367.657,212.233C368.922,211.821 369.69,211.595 369.839,211.56L371.055,211.402L372.812,211.615L374.194,212.187L375.466,213.158C376.266,213.958 386.735,231.969 395.937,241.171C396.619,241.853 399.372,244.644 402.839,247.976C402.147,246.424 401.55,244.93 401.086,243.54C400.593,242.06 397.434,235.831 397.102,235.168C388.279,217.521 388.028,217.776 386.951,213.468C386.148,210.256 388.104,206.996 391.317,206.192C394.529,205.389 397.789,207.345 398.593,210.558C399.552,214.396 399.973,214.076 407.835,229.801C408.228,230.586 411.887,237.994 412.471,239.745C415.224,248.007 423.315,260.234 426.537,265.183C427.865,267.223 428.552,268.596 428.632,268.836C429.324,270.913 429.453,272.146 429.45,272.674L429.05,274.871L428.194,276.418L426.805,277.743L424.968,278.598L422.95,278.801L421.065,278.37L419.548,277.509L418.355,276.424C417.511,275.548 415.911,273.389 413.792,272.329C406.951,268.908 389.418,251.623 387.452,249.657C380.419,242.624 372.638,230.651 368.713,224.517C355.04,229.032 313.756,242.876 313.031,243.238C306.894,246.307 239.026,267.068 224.506,270.635C186.021,280.088 167.146,286.433 164.881,287.187C164.263,287.393 153.605,289.453 145.366,293.795C143.16,294.958 141.128,296.265 139.719,297.832C139.023,298.606 138.435,299.404 138.498,300.386C138.996,308.196 137.548,313.655 136.139,318.611C135.116,322.208 134.015,325.426 134.632,329.651C137.595,349.918 134.402,349.901 131.506,370.168L130.935,372.231L129.324,374.393L127.892,375.317L126.26,375.813L124.587,375.848L123.019,375.462L121.381,374.587C119.769,373.505 114.518,369.268 96.195,363.16C64.222,352.502 63.495,354.005 31.734,332.83C28.193,330.47 25.486,328.779 24.223,327.146L22.773,324.394L22.434,322.643L22.485,320.864C22.731,319.067 23.707,316.701 26.509,313.898C54.6,285.808 58.735,270.169 64.925,251.597C65.472,249.956 67.334,247.091 69.683,244.136C72.078,241.122 75.058,237.877 75.81,236.374C77.291,233.412 80.898,232.209 83.859,233.69C86.821,235.171 88.024,238.778 86.543,241.74C85.734,243.357 83.089,246.659 80.413,249.945C78.745,251.993 76.448,255.265 76.265,255.526Z" style="fill:rgb(61,61,61);"/>
                <path d="M387.361,135.828C388.863,136.735 391.187,138.668 393.731,141.198C399.085,146.521 406.095,154.615 408.058,156.829C408.066,156.838 408.075,156.848 408.083,156.858C408.82,157.416 409.444,158.012 409.975,158.635L411.789,161.64C412.778,164.132 412.853,167.125 411.819,170.69C409.577,178.421 400.428,190.973 398.196,211.06C397.831,214.351 394.862,216.726 391.57,216.36C388.279,215.995 385.904,213.026 386.27,209.735C388.314,191.332 395.591,178.78 399.167,170.375C399.71,169.098 400.154,167.951 400.411,166.913C400.465,166.696 400.508,166.398 400.537,166.172L399.5,165.26C398.714,164.4 395.137,160.249 391.162,155.904C387.349,151.736 383.291,147.18 381.469,146.269C381.131,146.1 379.93,145.299 378.216,143.815C373.821,140.01 363.307,130.298 354.219,121.374C346.079,113.381 339.166,105.828 337.843,103.182C336.627,100.751 335.694,100.152 334.74,99.16C333.572,97.946 332.326,96.457 330.84,93.485C326.459,84.723 318.049,76.213 312.488,68.1C310.299,70.181 307.338,73.012 305.152,75.166C302.108,78.167 299.061,80.813 296.61,82.253C295.165,83.561 289.17,88.919 285.683,90.956C285.057,91.513 283.478,92.865 280.547,95.063C232.269,131.271 185.951,151.5 160.459,162.409C154.085,165.137 149.048,167.263 145.666,168.905C144.228,169.603 142.625,170.573 142.625,170.573C140.275,172.805 136.558,172.769 134.253,170.465C131.912,168.123 131.912,164.321 134.253,161.979C135.659,160.573 139.73,158.311 146.197,155.48C167.655,146.082 219.26,126.028 273.347,85.463C279.315,80.986 279.081,80.871 279.651,80.586C282.595,79.114 287.718,74.129 288.817,73.12L290.425,71.967C292.735,70.812 295.777,67.606 298.824,64.522C302.815,60.482 306.754,56.529 309.248,55.016L311.902,53.849L313.525,53.596L314.886,53.663L316.472,54.095L318.005,54.967L319.22,56.152L320.024,57.411C324.866,67.096 336.223,77.418 341.573,88.118C342.786,90.544 343.719,91.141 344.673,92.133C345.84,93.347 347.088,94.839 348.576,97.815C349.687,100.037 355.792,106.101 362.626,112.812C372.563,122.569 384.244,133.307 387.249,135.739C387.283,135.767 387.324,135.799 387.361,135.828ZM400.708,166.323C400.722,166.339 400.739,166.354 400.757,166.366L400.708,166.323Z" style="fill:rgb(61,61,61);"/>
                <path d="M280.708,83.819C283.67,85.3 284.872,88.907 283.391,91.868C281.91,94.83 278.303,96.033 275.341,94.552C248.775,81.269 247.597,84.181 220.93,70.848C220.757,70.761 193.926,62.628 187.238,60.399C183.044,59.001 179.873,58.604 177.144,59.315C174.459,60.014 172.307,61.747 169.99,63.996C165.813,68.05 161.435,73.654 155.129,79.96C142.438,92.651 144.83,94.569 124.422,114.977C101.206,138.193 96.097,150.074 96.097,176.867C96.097,180.179 93.409,182.867 90.097,182.867C86.786,182.867 84.097,180.179 84.097,176.867C84.097,146.46 89.59,132.839 115.937,106.491C136.345,86.083 133.953,84.166 146.644,71.475C153.002,65.117 157.421,59.473 161.632,55.385C165.606,51.528 169.514,48.902 174.119,47.703C178.679,46.514 184.023,46.678 191.033,49.015C198.042,51.351 226.115,60.024 226.297,60.115C252.963,73.448 254.142,70.536 280.708,83.819Z" style="fill:rgb(61,61,61);"/>
                <path d="M176.706,205.219C174.364,207.56 170.562,207.56 168.22,205.219C165.879,202.877 165.879,199.075 168.22,196.733C178.243,186.711 258.72,140.819 279.376,128.97C289.681,123.059 285.589,125.627 292.996,120.593C299.368,116.262 317.377,105.22 329.836,92.76C332.178,90.419 335.98,90.419 338.321,92.76C340.663,95.102 340.663,98.904 338.321,101.246C325.253,114.314 306.424,125.975 299.741,130.518C291.912,135.839 296.24,133.131 285.347,139.379C265.19,150.942 186.486,195.439 176.706,205.219Z" style="fill:rgb(61,61,61);"/>
                <path d="M106.118,329.53C106.598,328.376 107.09,327.33 107.384,326.724C107.606,325.497 109.033,317.583 110.084,311.213C111.453,302.914 113.074,294.531 113.889,292.35C113.98,291.799 114.726,287.528 117.762,275.387C122.522,256.345 128.934,248.143 129.545,247.391C130.88,245.552 133.209,244.553 135.582,245.028C138.829,245.677 140.938,248.841 140.289,252.088L139.812,253.514L138.864,254.952C137.957,256.056 133.543,261.739 129.403,278.298C125.011,295.867 125.46,295.992 124.757,297.399C124.782,297.348 124.873,297.171 124.873,297.171C124.873,297.171 122.465,309.886 121.148,317.886C119.991,324.909 118.762,330.792 118.357,331.601C118.207,331.901 117.247,333.798 116.697,335.449C116.44,336.222 116.176,336.848 115.915,337.361L115.045,338.761L113.918,339.967L112.412,340.981L110.95,341.54L109.093,341.809C108.24,341.837 107.113,341.638 105.502,341.523C102.678,341.321 98.579,339.813 94.631,337.841C90.69,335.873 85.651,332.925 84.953,332.515C73.368,328.582 61.744,320.815 53.377,316.632C48.776,314.331 48.664,314.717 44.11,312.439C41.148,310.958 39.945,307.351 41.426,304.389C42.907,301.428 46.514,300.225 49.476,301.706C54.031,303.983 54.143,303.598 58.744,305.899C66.787,309.92 77.936,317.528 89.071,321.24C89.874,321.508 93.579,323.703 97.818,325.977C100.709,327.528 103.905,329.267 106.118,329.53Z" style="fill:rgb(61,61,61);"/>
                <path d="M339.245,107.178C338.029,104.907 338.379,102.017 340.293,100.103C342.635,97.761 346.437,97.761 348.778,100.103L349.953,101.709L350.684,103.524C351.441,105.855 353.014,112.186 357.123,124.514L358.502,128.651C365.8,150.543 372.792,178.127 373.347,179.238C375.04,182.623 380.467,210.751 380.913,212.088C381.96,215.23 380.26,218.63 377.118,219.678C373.977,220.725 370.576,219.024 369.529,215.883C369.105,214.612 364.223,187.822 362.614,184.604C362.041,183.458 354.65,155.041 347.118,132.446L345.739,128.309C341.566,115.788 339.541,108.293 339.245,107.178Z" style="fill:rgb(61,61,61);"/>
                <path d="M139.19,264.532L353.506,186.198" style="fill:none;stroke:rgb(61,61,61);stroke-width:5.57px;"/>
                <path d="M345.783,128.551L175.323,215.16" style="fill:none;stroke:rgb(61,61,61);stroke-width:5.57px;"/>
            </g>
        </g>
    </g>
</svg>
