<?xml version="1.0" encoding="UTF-8" standalone="no"?>
<!DOCTYPE svg PUBLIC "-//W3C//DTD SVG 1.1//EN" "http://www.w3.org/Graphics/SVG/1.1/DTD/svg11.dtd">
<svg xmlns="http://www.w3.org/2000/svg" version="1.1" viewBox="0.00 0.00 150.00 150.00">
<g stroke-width="2.00" fill="none" stroke-linecap="butt">
<path stroke="#8dd1fb" vector-effect="non-scaling-stroke" d="
  M 74.85 35.32
  Q 73.69 33.29 72.39 31.05
  C 70.67 28.11 67.13 26.29 63.96 27.79
  C 58.97 30.16 58.97 34.53 61.49 38.72
  Q 64.52 43.75 67.17 48.52
  Q 67.38 48.89 67.17 49.26
  L 46.08 85.79
  Q 45.80 86.28 45.23 86.28
  Q 37.37 86.22 29.07 86.28
  C 19.62 86.36 19.59 99.53 29.63 99.52
  Q 60.15 99.47 88.65 99.51
  Q 89.21 99.51 89.38 98.98
  C 91.50 92.79 87.23 86.28 80.65 86.27
  Q 71.33 86.24 61.58 86.26
  A 0.28 0.28 0.0 0 1 61.33 85.84
  Q 74.53 63.05 89.22 37.50
  C 93.68 29.75 83.10 23.14 78.08 30.47
  Q 76.50 32.76 75.32 35.30
  A 0.27 0.27 0.0 0 1 74.85 35.32"
/>
<path stroke="#8dd1fb" vector-effect="non-scaling-stroke" d="
  M 112.63 99.48
  Q 116.49 99.49 120.44 99.51
  Q 125.39 99.55 127.34 95.66
  C 128.85 92.65 127.64 89.00 124.81 87.31
  Q 122.89 86.16 119.57 86.21
  Q 111.58 86.33 104.55 86.23
  A 0.56 0.53 74.5 0 1 104.08 85.95
  L 85.22 53.29
  Q 84.73 52.43 84.11 53.21
  Q 78.61 60.04 80.04 68.32
  Q 80.72 72.25 84.70 79.02
  Q 95.89 98.04 106.74 117.09
  C 111.38 125.23 122.97 119.03 118.05 110.21
  Q 115.19 105.09 112.24 100.19
  Q 111.81 99.48 112.63 99.48"
/>
<path stroke="#8dd1fb" vector-effect="non-scaling-stroke" d="
  M 35.92 103.29
  C 34.37 106.30 31.44 110.04 30.93 113.23
  Q 30.14 118.25 34.68 120.23
  Q 39.94 122.52 43.32 116.94
  Q 46.42 111.83 49.21 106.86
  Q 49.48 106.37 49.11 105.95
  Q 44.51 100.85 36.94 102.51
  Q 36.25 102.66 35.92 103.29"
/>
</g>
<path fill="#1ba2f7" d="
  M 36.89 0.00
  L 113.49 0.00
  Q 117.33 0.39 121.13 0.90
  C 136.77 2.99 148.06 14.92 149.45 31.01
  Q 149.69 33.80 150.00 36.63
  L 150.00 113.49
  Q 149.16 122.66 148.46 125.01
  Q 142.44 145.46 121.34 148.91
  Q 117.38 149.55 113.37 150.00
  L 36.51 150.00
  Q 32.65 149.63 28.79 149.09
  Q 24.44 148.47 21.31 147.22
  Q 2.79 139.78 0.63 118.73
  Q 0.35 116.06 0.00 113.37
  L 0.00 36.51
  Q 0.69 28.40 1.52 25.25
  Q 5.92 8.50 21.23 2.73
  Q 27.23 0.46 36.89 0.00
  Z
  M 74.85 35.32
  Q 73.69 33.29 72.39 31.05
  C 70.67 28.11 67.13 26.29 63.96 27.79
  C 58.97 30.16 58.97 34.53 61.49 38.72
  Q 64.52 43.75 67.17 48.52
  Q 67.38 48.89 67.17 49.26
  L 46.08 85.79
  Q 45.80 86.28 45.23 86.28
  Q 37.37 86.22 29.07 86.28
  C 19.62 86.36 19.59 99.53 29.63 99.52
  Q 60.15 99.47 88.65 99.51
  Q 89.21 99.51 89.38 98.98
  C 91.50 92.79 87.23 86.28 80.65 86.27
  Q 71.33 86.24 61.58 86.26
  A 0.28 0.28 0.0 0 1 61.33 85.84
  Q 74.53 63.05 89.22 37.50
  C 93.68 29.75 83.10 23.14 78.08 30.47
  Q 76.50 32.76 75.32 35.30
  A 0.27 0.27 0.0 0 1 74.85 35.32
  Z
  M 112.63 99.48
  Q 116.49 99.49 120.44 99.51
  Q 125.39 99.55 127.34 95.66
  C 128.85 92.65 127.64 89.00 124.81 87.31
  Q 122.89 86.16 119.57 86.21
  Q 111.58 86.33 104.55 86.23
  A 0.56 0.53 74.5 0 1 104.08 85.95
  L 85.22 53.29
  Q 84.73 52.43 84.11 53.21
  Q 78.61 60.04 80.04 68.32
  Q 80.72 72.25 84.70 79.02
  Q 95.89 98.04 106.74 117.09
  C 111.38 125.23 122.97 119.03 118.05 110.21
  Q 115.19 105.09 112.24 100.19
  Q 111.81 99.48 112.63 99.48
  Z
  M 35.92 103.29
  C 34.37 106.30 31.44 110.04 30.93 113.23
  Q 30.14 118.25 34.68 120.23
  Q 39.94 122.52 43.32 116.94
  Q 46.42 111.83 49.21 106.86
  Q 49.48 106.37 49.11 105.95
  Q 44.51 100.85 36.94 102.51
  Q 36.25 102.66 35.92 103.29
  Z"
/>
<path fill="#ffffff" d="
  M 74.85 35.32
  A 0.27 0.27 0.0 0 0 75.32 35.30
  Q 76.50 32.76 78.08 30.47
  C 83.10 23.14 93.68 29.75 89.22 37.50
  Q 74.53 63.05 61.33 85.84
  A 0.28 0.28 0.0 0 0 61.58 86.26
  Q 71.33 86.24 80.65 86.27
  C 87.23 86.28 91.50 92.79 89.38 98.98
  Q 89.21 99.51 88.65 99.51
  Q 60.15 99.47 29.63 99.52
  C 19.59 99.53 19.62 86.36 29.07 86.28
  Q 37.37 86.22 45.23 86.28
  Q 45.80 86.28 46.08 85.79
  L 67.17 49.26
  Q 67.38 48.89 67.17 48.52
  Q 64.52 43.75 61.49 38.72
  C 58.97 34.53 58.97 30.16 63.96 27.79
  C 67.13 26.29 70.67 28.11 72.39 31.05
  Q 73.69 33.29 74.85 35.32
  Z"
/>
<path fill="#ffffff" d="
  M 112.24 100.19
  Q 115.19 105.09 118.05 110.21
  C 122.97 119.03 111.38 125.23 106.74 117.09
  Q 95.89 98.04 84.70 79.02
  Q 80.72 72.25 80.04 68.32
  Q 78.61 60.04 84.11 53.21
  Q 84.73 52.43 85.22 53.29
  L 104.08 85.95
  A 0.56 0.53 74.5 0 0 104.55 86.23
  Q 111.58 86.33 119.57 86.21
  Q 122.89 86.16 124.81 87.31
  C 127.64 89.00 128.85 92.65 127.34 95.66
  Q 125.39 99.55 120.44 99.51
  Q 116.49 99.49 112.63 99.48
  Q 111.81 99.48 112.24 100.19
  Z"
/>
<path fill="#ffffff" d="
  M 30.93 113.23
  C 31.44 110.04 34.37 106.30 35.92 103.29
  Q 36.25 102.66 36.94 102.51
  Q 44.51 100.85 49.11 105.95
  Q 49.48 106.37 49.21 106.86
  Q 46.42 111.83 43.32 116.94
  Q 39.94 122.52 34.68 120.23
  Q 30.14 118.25 30.93 113.23
  Z"
/>
</svg>
