<?xml version="1.0" encoding="UTF-8" standalone="no"?>
<!DOCTYPE svg PUBLIC "-//W3C//DTD SVG 1.1//EN" "http://www.w3.org/Graphics/SVG/1.1/DTD/svg11.dtd">
<svg xmlns="http://www.w3.org/2000/svg" version="1.1" viewBox="0.00 0.00 1251.00 1353.00">
<g stroke-width="2.00" fill="none" stroke-linecap="butt">
<path stroke="#40b1bc" vector-effect="non-scaling-stroke" d="
  M 1039.19 429.66
  L 876.71 526.97"
/>
<path stroke="#3ba69b" vector-effect="non-scaling-stroke" d="
  M 876.71 526.97
  Q 875.95 526.81 875.86 527.00"
/>
<path stroke="#3ace79" vector-effect="non-scaling-stroke" d="
  M 875.86 527.00
  Q 875.55 526.01 875.10 525.38
  Q 868.17 515.77 858.33 509.17
  Q 855.26 507.11 848.31 503.19
  Q 751.25 448.38 654.20 393.55
  Q 636.49 383.55 618.91 384.27
  Q 618.53 384.29 618.21 384.50
  Q 618.06 384.61 617.86 384.62
  Q 603.27 385.74 592.40 392.14
  Q 491.29 451.78 390.18 511.43
  Q 377.58 518.87 370.47 534.04"
/>
<path stroke="#238663" vector-effect="non-scaling-stroke" d="
  M 370.47 534.04
  L 204.82 441.23"
/>
<path stroke="#255b9b" vector-effect="non-scaling-stroke" d="
  M 627.73 1158.47
  L 628.00 968.76"
/>
<path stroke="#3d7bd3" vector-effect="non-scaling-stroke" d="
  M 628.00 968.76
  Q 634.67 968.35 637.77 967.70
  Q 649.84 965.16 660.26 958.71
  Q 662.86 957.10 665.45 955.57
  Q 756.83 901.50 849.85 846.80
  Q 861.65 839.87 865.94 836.02
  Q 881.12 822.43 885.13 803.09
  C 886.28 797.53 886.75 790.59 886.74 785.50
  Q 886.70 675.25 886.67 565.00
  Q 886.67 556.46 885.74 550.30
  Q 883.98 538.64 876.89 528.07
  Q 876.72 527.81 876.70 527.50
  Q 876.68 527.22 876.71 526.97"
/>
<path stroke="#06232e" vector-effect="non-scaling-stroke" d="
  M 370.35 534.24
  Q 364.48 547.11 364.48 558.50
  Q 364.47 682.64 364.47 803.19
  Q 364.47 811.81 365.66 816.31
  Q 369.21 829.69 379.56 837.66
  Q 383.34 840.57 394.78 847.00
  Q 493.83 902.66 591.50 958.08
  Q 601.69 963.86 608.15 965.88
  Q 617.68 968.87 627.89 968.72"
/>
<path stroke="#20507a" vector-effect="non-scaling-stroke" d="
  M 627.89 968.72
  Q 627.95 968.74 628.00 968.76"
/>
<path stroke="#1e4366" vector-effect="non-scaling-stroke" d="
  M 627.89 968.72
  L 627.56 872.19"
/>
<path stroke="#389890" vector-effect="non-scaling-stroke" d="
  M 875.86 527.00
  Q 856.88 538.34 837.91 549.69
  Q 829.17 554.91 820.99 560.36
  Q 807.63 569.24 794.23 578.27"
/>
<path stroke="#87d8b7" vector-effect="non-scaling-stroke" d="
  M 794.23 578.27
  Q 788.76 569.14 781.14 564.36
  Q 775.98 561.11 762.19 553.41
  Q 702.80 520.23 648.97 489.51
  Q 642.19 485.64 635.92 483.23
  Q 632.42 481.89 626.84 481.10
  Q 623.59 480.65 620.75 481.11
  Q 617.46 481.64 614.30 481.82
  Q 613.99 481.84 613.78 482.07
  Q 613.43 482.45 612.91 482.55
  Q 608.15 483.45 600.99 487.67
  Q 540.63 523.25 480.64 558.69
  Q 467.22 566.62 465.20 568.28
  Q 458.03 574.18 453.99 583.12"
/>
<path stroke="#1e6b44" vector-effect="non-scaling-stroke" d="
  M 453.99 583.12
  Q 440.54 575.04 427.40 566.85
  Q 418.20 561.11 410.23 556.61
  Q 390.45 545.41 370.35 534.24"
/>
<path stroke="#207858" vector-effect="non-scaling-stroke" d="
  M 370.35 534.24
  Q 370.41 534.14 370.47 534.04"
/>
<path stroke="#87b0d9" vector-effect="non-scaling-stroke" d="
  M 794.23 578.27
  Q 797.35 583.53 798.20 586.01
  Q 799.33 589.32 799.89 594.29
  Q 800.30 597.88 800.29 601.94
  Q 800.20 684.90 800.26 755.26
  C 800.26 757.04 799.57 758.85 799.33 760.65
  C 798.33 768.06 793.47 775.87 788.22 781.33
  Q 784.72 784.96 773.64 791.47
  Q 708.60 829.64 646.94 866.16
  Q 641.73 869.24 635.77 870.81
  Q 633.93 871.30 627.56 872.19"
/>
<path stroke="#6d838c" vector-effect="non-scaling-stroke" d="
  M 627.56 872.19
  Q 626.50 871.96 625.02 871.98
  Q 623.48 871.99 622.49 871.87
  Q 613.57 870.82 606.83 867.01
  Q 533.30 825.50 465.11 786.98
  Q 455.41 781.49 452.36 772.41
  Q 450.95 768.20 450.95 761.38
  Q 450.99 679.00 450.98 597.29
  Q 450.98 595.62 451.27 593.96
  Q 451.59 592.17 452.02 590.41
  Q 453.01 586.43 453.99 583.12"
/>
</g>
<path fill="#3ddc84" d="
  M 1039.19 429.66
  L 876.71 526.97
  Q 875.95 526.81 875.86 527.00
  Q 875.55 526.01 875.10 525.38
  Q 868.17 515.77 858.33 509.17
  Q 855.26 507.11 848.31 503.19
  Q 751.25 448.38 654.20 393.55
  Q 636.49 383.55 618.91 384.27
  Q 618.53 384.29 618.21 384.50
  Q 618.06 384.61 617.86 384.62
  Q 603.27 385.74 592.40 392.14
  Q 491.29 451.78 390.18 511.43
  Q 377.58 518.87 370.47 534.04
  L 204.82 441.23
  Q 213.88 422.31 229.72 409.66
  Q 234.77 405.63 245.14 399.52
  Q 408.98 302.94 569.53 208.20
  C 595.98 192.59 628.81 190.25 657.31 201.87
  Q 663.78 204.50 674.99 210.83
  Q 839.78 303.89 1004.01 396.67
  Q 1024.40 408.19 1039.19 429.66
  Z"
/>
<path fill="#37bf6e" d="
  M 875.86 527.00
  Q 856.88 538.34 837.91 549.69
  Q 829.17 554.91 820.99 560.36
  Q 807.63 569.24 794.23 578.27
  Q 788.76 569.14 781.14 564.36
  Q 775.98 561.11 762.19 553.41
  Q 702.80 520.23 648.97 489.51
  Q 642.19 485.64 635.92 483.23
  Q 632.42 481.89 626.84 481.10
  Q 623.59 480.65 620.75 481.11
  Q 617.46 481.64 614.30 481.82
  Q 613.99 481.84 613.78 482.07
  Q 613.43 482.45 612.91 482.55
  Q 608.15 483.45 600.99 487.67
  Q 540.63 523.25 480.64 558.69
  Q 467.22 566.62 465.20 568.28
  Q 458.03 574.18 453.99 583.12
  Q 440.54 575.04 427.40 566.85
  Q 418.20 561.11 410.23 556.61
  Q 390.45 545.41 370.35 534.24
  Q 370.41 534.14 370.47 534.04
  Q 377.58 518.87 390.18 511.43
  Q 491.29 451.78 592.40 392.14
  Q 603.27 385.74 617.86 384.62
  Q 618.06 384.61 618.21 384.50
  Q 618.53 384.29 618.91 384.27
  Q 636.49 383.55 654.20 393.55
  Q 751.25 448.38 848.31 503.19
  Q 855.26 507.11 858.33 509.17
  Q 868.17 515.77 875.10 525.38
  Q 875.55 526.01 875.86 527.00
  Z"
/>
<path fill="#4285f4" d="
  M 1039.19 429.66
  Q 1056.26 454.28 1056.26 482.75
  Q 1056.23 669.13 1056.26 855.50
  Q 1056.27 869.38 1055.45 876.00
  Q 1050.43 916.72 1018.39 942.81
  C 1011.27 948.60 1001.56 953.85 992.93 958.94
  Q 837.96 1050.26 684.58 1140.91
  Q 673.11 1147.69 666.98 1150.36
  C 655.03 1155.56 640.86 1158.90 627.73 1158.47
  L 628.00 968.76
  Q 634.67 968.35 637.77 967.70
  Q 649.84 965.16 660.26 958.71
  Q 662.86 957.10 665.45 955.57
  Q 756.83 901.50 849.85 846.80
  Q 861.65 839.87 865.94 836.02
  Q 881.12 822.43 885.13 803.09
  C 886.28 797.53 886.75 790.59 886.74 785.50
  Q 886.70 675.25 886.67 565.00
  Q 886.67 556.46 885.74 550.30
  Q 883.98 538.64 876.89 528.07
  Q 876.72 527.81 876.70 527.50
  Q 876.68 527.22 876.71 526.97
  L 1039.19 429.66
  Z"
/>
<path fill="#083042" d="
  M 204.82 441.23
  L 370.47 534.04
  Q 370.41 534.14 370.35 534.24
  Q 364.48 547.11 364.48 558.50
  Q 364.47 682.64 364.47 803.19
  Q 364.47 811.81 365.66 816.31
  Q 369.21 829.69 379.56 837.66
  Q 383.34 840.57 394.78 847.00
  Q 493.83 902.66 591.50 958.08
  Q 601.69 963.86 608.15 965.88
  Q 617.68 968.87 627.89 968.72
  Q 627.95 968.74 628.00 968.76
  L 627.73 1158.47
  C 611.66 1159.07 593.64 1154.52 579.74 1146.69
  Q 401.87 1046.37 226.43 947.09
  Q 222.28 944.74 218.04 941.12
  Q 200.94 926.48 196.12 904.38
  Q 194.66 897.71 194.67 886.88
  Q 194.92 689.00 194.64 492.27
  Q 194.63 481.06 195.53 473.78
  Q 197.32 459.21 202.98 445.49
  Q 203.91 443.21 204.82 441.23
  Z"
/>
<path fill="#d6f0ff" d="
  M 794.23 578.27
  Q 797.35 583.53 798.20 586.01
  Q 799.33 589.32 799.89 594.29
  Q 800.30 597.88 800.29 601.94
  Q 800.20 684.90 800.26 755.26
  C 800.26 757.04 799.57 758.85 799.33 760.65
  C 798.33 768.06 793.47 775.87 788.22 781.33
  Q 784.72 784.96 773.64 791.47
  Q 708.60 829.64 646.94 866.16
  Q 641.73 869.24 635.77 870.81
  Q 633.93 871.30 627.56 872.19
  Q 626.50 871.96 625.02 871.98
  Q 623.48 871.99 622.49 871.87
  Q 613.57 870.82 606.83 867.01
  Q 533.30 825.50 465.11 786.98
  Q 455.41 781.49 452.36 772.41
  Q 450.95 768.20 450.95 761.38
  Q 450.99 679.00 450.98 597.29
  Q 450.98 595.62 451.27 593.96
  Q 451.59 592.17 452.02 590.41
  Q 453.01 586.43 453.99 583.12
  Q 458.03 574.18 465.20 568.28
  Q 467.22 566.62 480.64 558.69
  Q 540.63 523.25 600.99 487.67
  Q 608.15 483.45 612.91 482.55
  Q 613.43 482.45 613.78 482.07
  Q 613.99 481.84 614.30 481.82
  Q 617.46 481.64 620.75 481.11
  Q 623.59 480.65 626.84 481.10
  Q 632.42 481.89 635.92 483.23
  Q 642.19 485.64 648.97 489.51
  Q 702.80 520.23 762.19 553.41
  Q 775.98 561.11 781.14 564.36
  Q 788.76 569.14 794.23 578.27
  Z"
/>
<path fill="#3870b2" d="
  M 875.86 527.00
  Q 875.95 526.81 876.71 526.97
  Q 876.68 527.22 876.70 527.50
  Q 876.72 527.81 876.89 528.07
  Q 883.98 538.64 885.74 550.30
  Q 886.67 556.46 886.67 565.00
  Q 886.70 675.25 886.74 785.50
  C 886.75 790.59 886.28 797.53 885.13 803.09
  Q 881.12 822.43 865.94 836.02
  Q 861.65 839.87 849.85 846.80
  Q 756.83 901.50 665.45 955.57
  Q 662.86 957.10 660.26 958.71
  Q 649.84 965.16 637.77 967.70
  Q 634.67 968.35 628.00 968.76
  Q 627.95 968.74 627.89 968.72
  L 627.56 872.19
  Q 633.93 871.30 635.77 870.81
  Q 641.73 869.24 646.94 866.16
  Q 708.60 829.64 773.64 791.47
  Q 784.72 784.96 788.22 781.33
  C 793.47 775.87 798.33 768.06 799.33 760.65
  C 799.57 758.85 800.26 757.04 800.26 755.26
  Q 800.20 684.90 800.29 601.94
  Q 800.30 597.88 799.89 594.29
  Q 799.33 589.32 798.20 586.01
  Q 797.35 583.53 794.23 578.27
  Q 807.63 569.24 820.99 560.36
  Q 829.17 554.91 837.91 549.69
  Q 856.88 538.34 875.86 527.00
  Z"
/>
<path fill="#041619" d="
  M 370.35 534.24
  Q 390.45 545.41 410.23 556.61
  Q 418.20 561.11 427.40 566.85
  Q 440.54 575.04 453.99 583.12
  Q 453.01 586.43 452.02 590.41
  Q 451.59 592.17 451.27 593.96
  Q 450.98 595.62 450.98 597.29
  Q 450.99 679.00 450.95 761.38
  Q 450.95 768.20 452.36 772.41
  Q 455.41 781.49 465.11 786.98
  Q 533.30 825.50 606.83 867.01
  Q 613.57 870.82 622.49 871.87
  Q 623.48 871.99 625.02 871.98
  Q 626.50 871.96 627.56 872.19
  L 627.89 968.72
  Q 617.68 968.87 608.15 965.88
  Q 601.69 963.86 591.50 958.08
  Q 493.83 902.66 394.78 847.00
  Q 383.34 840.57 379.56 837.66
  Q 369.21 829.69 365.66 816.31
  Q 364.47 811.81 364.47 803.19
  Q 364.47 682.64 364.48 558.50
  Q 364.48 547.11 370.35 534.24
  Z"
/>
</svg>
