<?xml version="1.0" encoding="UTF-8" standalone="no"?>
<!DOCTYPE svg PUBLIC "-//W3C//DTD SVG 1.1//EN" "http://www.w3.org/Graphics/SVG/1.1/DTD/svg11.dtd">
<svg xmlns="http://www.w3.org/2000/svg" version="1.1" viewBox="0.00 0.00 288.00 288.00">
<g stroke-width="2.00" fill="none" stroke-linecap="butt">
<path stroke="#7ebbf6" vector-effect="non-scaling-stroke" d="
  M 215.37 93.50
  L 123.11 147.82
  Q 122.76 148.02 122.57 147.67
  Q 114.42 132.96 106.59 118.58
  C 102.84 111.68 98.04 107.46 89.77 108.22
  Q 86.98 108.48 76.97 114.19
  Q 58.11 124.95 38.93 135.76"
/>
<path stroke="#7ebbf6" vector-effect="non-scaling-stroke" d="
  M 242.55 109.34
  Q 184.40 143.63 126.83 177.65
  Q 120.40 181.45 114.25 179.52
  Q 107.94 177.54 104.83 171.94
  Q 96.03 156.10 87.43 140.50
  A 0.56 0.55 60.3 0 0 86.66 140.28
  L 38.91 167.33"
/>
</g>
<path fill="#2f80ed" d="
  M 215.37 93.50
  L 123.11 147.82
  Q 122.76 148.02 122.57 147.67
  Q 114.42 132.96 106.59 118.58
  C 102.84 111.68 98.04 107.46 89.77 108.22
  Q 86.98 108.48 76.97 114.19
  Q 58.11 124.95 38.93 135.76
  Q 38.96 93.25 38.95 51.18
  Q 38.95 36.28 40.21 32.49
  C 45.01 18.11 58.92 9.74 73.90 12.69
  Q 78.11 13.52 89.30 20.05
  Q 151.95 56.58 215.37 93.50
  Z"
/>
<path fill="#ccf6ff" d="
  M 215.37 93.50
  L 242.55 109.34
  Q 184.40 143.63 126.83 177.65
  Q 120.40 181.45 114.25 179.52
  Q 107.94 177.54 104.83 171.94
  Q 96.03 156.10 87.43 140.50
  A 0.56 0.55 60.3 0 0 86.66 140.28
  L 38.91 167.33
  L 38.93 135.76
  Q 58.11 124.95 76.97 114.19
  Q 86.98 108.48 89.77 108.22
  C 98.04 107.46 102.84 111.68 106.59 118.58
  Q 114.42 132.96 122.57 147.67
  Q 122.76 148.02 123.11 147.82
  L 215.37 93.50
  Z"
/>
<path fill="#2f80ed" d="
  M 242.55 109.34
  Q 249.63 113.50 257.95 118.33
  Q 266.65 123.38 270.43 131.87
  C 275.30 142.84 273.20 156.10 264.72 164.48
  Q 261.41 167.75 253.53 172.32
  Q 167.43 222.30 82.62 271.85
  C 66.13 281.49 45.49 273.14 40.09 255.01
  Q 38.89 250.97 38.92 237.66
  Q 39.00 202.20 38.91 167.33
  L 86.66 140.28
  A 0.56 0.55 60.3 0 1 87.43 140.50
  Q 96.03 156.10 104.83 171.94
  Q 107.94 177.54 114.25 179.52
  Q 120.40 181.45 126.83 177.65
  Q 184.40 143.63 242.55 109.34
  Z"
/>
</svg>
